<?xml version="1.0" encoding="UTF-8" standalone="no"?><svg xmlns="http://www.w3.org/2000/svg" xmlns:xlink="http://www.w3.org/1999/xlink" data-name="Layer 2" fill="#74301b" height="754.4" preserveAspectRatio="xMidYMid meet" version="1" viewBox="516.7 622.8 966.6 754.4" width="966.6" zoomAndPan="magnify"><g id="change1_1"><path d="M999.374,1288.436H609.741a14,14,0,0,1-14-14V636.794a14,14,0,0,1,14-14H909.4A104.094,104.094,0,0,1,1013.374,726.77v547.666A14,14,0,0,1,999.374,1288.436Zm-375.633-28H985.374V726.77A76.062,76.062,0,0,0,909.4,650.794H623.741Z" fill="inherit"/></g><g id="change1_2"><path d="M998.092,711.585a90.535,90.535,0,0,1,1.283,15.185v12.815h.487V726.77a90.535,90.535,0,0,1,1.283-15.185Z" fill="inherit"/></g><g id="change1_3"><path d="M1432.446,711.585h-42.952v28h42.952a22.884,22.884,0,0,1,22.858,22.858v563.9a22.884,22.884,0,0,1-22.858,22.858H567.554a22.884,22.884,0,0,1-22.858-22.858v-563.9a22.884,22.884,0,0,1,22.858-22.858h42.188v-28H567.554A50.916,50.916,0,0,0,516.7,762.444v563.9a50.916,50.916,0,0,0,50.858,50.858h864.893a50.916,50.916,0,0,0,50.858-50.858v-563.9A50.916,50.916,0,0,0,1432.446,711.585Z" fill="inherit"/></g><g id="change1_4"><path d="M1389.5,1288.436H999.862a14,14,0,0,1-14-14V726.77a104.094,104.094,0,0,1,103.976-103.976H1389.5a14,14,0,0,1,14,14v637.642A14,14,0,0,1,1389.5,1288.436Zm-375.633-28H1375.5V650.794H1089.838a76.062,76.062,0,0,0-75.976,75.976Z" fill="inherit"/></g><g id="change1_5"><path d="M896.652,790.369H712.463a14,14,0,0,1,0-28H896.652a14,14,0,0,1,0,28Z" fill="inherit"/></g><g id="change1_6"><path d="M896.652,884.887H712.463a14,14,0,0,1,0-28H896.652a14,14,0,0,1,0,28Z" fill="inherit"/></g><g id="change1_7"><path d="M896.652,979.4H712.463a14,14,0,0,1,0-28H896.652a14,14,0,0,1,0,28Z" fill="inherit"/></g><g id="change1_8"><path d="M896.652,1073.923H712.463a14,14,0,0,1,0-28H896.652a14,14,0,1,1,0,28Z" fill="inherit"/></g><g id="change1_9"><path d="M896.652,1168.441H712.463a14,14,0,0,1,0-28H896.652a14,14,0,0,1,0,28Z" fill="inherit"/></g><g id="change1_10"><path d="M1286.773,790.369H1102.584a14,14,0,0,1,0-28h184.189a14,14,0,0,1,0,28Z" fill="inherit"/></g><g id="change1_11"><path d="M1286.773,884.887H1102.584a14,14,0,0,1,0-28h184.189a14,14,0,0,1,0,28Z" fill="inherit"/></g><g id="change1_12"><path d="M1286.773,979.4H1102.584a14,14,0,0,1,0-28h184.189a14,14,0,0,1,0,28Z" fill="inherit"/></g><g id="change1_13"><path d="M1286.773,1073.923H1102.584a14,14,0,0,1,0-28h184.189a14,14,0,0,1,0,28Z" fill="inherit"/></g><g id="change1_14"><path d="M1286.773,1168.441H1102.584a14,14,0,1,1,0-28h184.189a14,14,0,1,1,0,28Z" fill="inherit"/></g></svg>