<?xml version="1.0" encoding="UTF-8" standalone="no"?><svg xmlns="http://www.w3.org/2000/svg" xmlns:xlink="http://www.w3.org/1999/xlink" fill="none" height="530" preserveAspectRatio="xMidYMid meet" style="fill: none" version="1" viewBox="25.6 35.0 555.5 530.1" width="556" zoomAndPan="magnify"><g id="change1_1"><path d="M308.265 565.033C295.58 565.053 282.701 564.11 270.047 562.288C219.864 555.059 173.301 533.992 135.071 501.261L37.8679 517.428C34.1509 518.043 30.4019 516.523 28.1699 513.487C25.9379 510.45 25.6029 506.417 27.3029 503.052L70.0669 418.439C45.5419 370.05 36.6899 316.105 44.4689 262.087C53.5929 198.736 85.4809 140.85 134.26 99.092C182.564 57.74 244.003 34.967 307.259 34.967C319.956 34.967 332.81 35.891 345.462 37.713L345.57 37.729C415.785 47.84 477.92 84.675 520.55 141.45C563.177 198.22 581.108 267.993 571.035 337.916C561.913 401.26 530.026 459.144 481.248 500.904C432.947 542.257 371.509 565.033 308.265 565.033ZM138.085 480.622C140.514 480.622 142.881 481.508 144.725 483.143C180.683 515.073 225.005 535.593 272.898 542.492C284.598 544.177 296.489 545.032 308.241 545.033C308.249 545.033 308.257 545.033 308.263 545.033C429.546 545.033 534 454.769 551.24 335.064C560.548 270.44 543.969 205.944 504.556 153.458C465.125 100.945 407.659 66.876 342.74 57.527L342.632 57.511C330.9 55.823 319.005 54.966 307.258 54.966C185.969 54.966 81.5049 145.234 64.2649 264.937C56.8469 316.457 65.7909 367.891 90.1319 413.682C91.6569 416.552 91.6929 419.986 90.2269 422.886L54.0539 494.46L136.445 480.757C136.991 480.667 137.54 480.622 138.085 480.622ZM391.859 452.849C373.605 452.849 349.302 446.178 313.06 431.219C266.401 411.978 220.133 371.716 182.782 317.852C182.154 316.946 181.717 316.307 181.469 315.977C181.445 315.946 181.381 315.86 181.357 315.829L181.041 315.397C169.082 299.172 149.02 266.899 149.02 233.053C149.02 193.404 168.928 173.27 177.429 164.672L178.073 164.02C186.776 155.166 196.475 150.673 206.895 150.673C230.322 150.673 249.125 173.67 258.911 195.191C268.217 215.658 273.967 245.424 259.547 261.955C257.833 263.924 256.187 265.663 254.595 267.345C252.537 269.52 250.593 271.575 248.645 273.976C248.592 274.041 248.539 274.105 248.484 274.169L248.285 274.401C247.493 275.327 246.33 276.688 245.981 277.384C246.042 277.578 246.186 277.949 246.515 278.514C251.719 287.279 266.083 309.752 286.033 327.432C311.001 349.553 331.167 357.661 340.859 361.557C341.76 361.919 342.567 362.245 343.269 362.536C344.405 363.005 345.623 363.256 346.78 363.256C347.642 363.256 349.237 363.103 350.208 362.072C354.703 357.246 360.454 349.196 366.542 340.673L369.357 336.735C375.824 327.639 383.801 325.721 389.352 325.721C392.539 325.721 395.862 326.356 399.235 327.606C459.975 348.654 471.374 375.457 470.236 394.24C468.506 422.816 437.214 444.775 408.649 450.928C404.235 451.861 398.972 452.849 391.859 452.849ZM197.433 303.93C197.844 304.475 198.371 305.235 199.217 306.454C234.403 357.193 277.542 394.937 320.69 412.73C353.944 426.456 376.557 432.847 391.86 432.847C397.043 432.847 400.931 432.117 404.471 431.368C425.726 426.79 449.224 410.287 450.27 393.03C451.273 376.473 430.246 359.502 392.58 346.467C392.499 346.439 392.419 346.41 392.338 346.38C391.192 345.949 390.158 345.722 389.352 345.722C388.753 345.722 387.506 345.722 385.632 348.359L382.816 352.297C376.338 361.362 370.222 369.927 364.797 375.75C360.215 380.606 353.831 383.255 346.778 383.255C343.026 383.255 339.167 382.48 335.617 381.015C334.958 380.742 334.221 380.445 333.395 380.113C323.499 376.134 300.327 366.818 272.768 342.402C251.5 323.554 236.387 300.632 229.271 288.647C221.385 275.09 229.581 265.501 233.081 261.405L233.194 261.272C235.592 258.325 237.866 255.922 240.067 253.597C241.586 251.992 243.02 250.476 244.469 248.812C250.787 241.569 249.165 222.078 240.703 203.467C231.784 183.851 218.197 170.671 206.894 170.671C202.039 170.671 197.139 173.152 192.329 178.045L191.65 178.733C184.305 186.162 169.02 201.62 169.02 233.051C169.02 253.595 179.27 279.284 197.141 303.531L197.433 303.93Z" fill="#8b2c12"/></g><g id="change1_2"><path d="M36.2259 517.563C33.0779 517.563 30.0729 516.074 28.1699 513.486C25.9379 510.449 25.6029 506.416 27.3029 503.051L96.5229 366.086C99.0139 361.157 105.028 359.182 109.959 361.672C114.888 364.163 116.864 370.18 114.373 375.108L54.0539 494.461L190.793 471.72C196.239 470.807 201.392 474.496 202.298 479.945C203.204 485.392 199.522 490.545 194.074 491.451L37.8679 517.428C37.3199 517.519 36.7709 517.563 36.2259 517.563Z" fill="#8b2c12"/></g></svg>